<svg xmlns="http://www.w3.org/2000/svg" xmlns:xlink="http://www.w3.org/1999/xlink" width="174.697" height="162.067" viewBox="0 0 174.697 162.067">
  <defs>
    <clipPath id="clip-path">
      <rect id="Rectangle_1905" data-name="Rectangle 1905" width="56.838" height="71.482" fill="none"/>
    </clipPath>
  </defs>
  <g id="Group_4548" data-name="Group 4548" transform="translate(-585.657 -245.018)">
    <path id="Path_462" data-name="Path 462" d="M17.249,15.878C33,4.952,103.97-12.509,120.416,13.774s34.3,45.5,21.8,68.887S41.351,151.739,17.249,114.385-4.62,31.051,17.249,15.878Z" transform="matrix(0.966, 0.259, -0.259, 0.966, 618.929, 245.018)" fill="#edf0f5"/>
    <path id="Path_471" data-name="Path 471" d="M1752.316,470.561a2.908,2.908,0,0,1-2.906,2.91h0a2.911,2.911,0,0,1-2.911-2.91h0a2.91,2.91,0,0,1,5.82,0Z" transform="translate(-1146.281 -136.113)" fill="none" stroke="#c4d0e0" stroke-miterlimit="10" stroke-width="1.5"/>
    <ellipse id="Ellipse_42" data-name="Ellipse 42" cx="3.034" cy="3.034" rx="3.034" ry="3.034" transform="translate(712.38 266.218)" fill="none" stroke="#c4d0e0" stroke-miterlimit="10" stroke-width="1.5"/>
    <path id="Path_472" data-name="Path 472" d="M1942.933,426.532a1.863,1.863,0,0,1-1.862,1.866h0a1.866,1.866,0,1,1,1.864-1.867Z" transform="translate(-1196.92 -136.364)" fill="none" stroke="#c4d0e0" stroke-miterlimit="10" stroke-width="1.5"/>
    <line id="Line_72" data-name="Line 72" y1="9.606" transform="translate(627.712 273.54)" fill="none" stroke="#c4d0e0" stroke-linecap="round" stroke-miterlimit="10" stroke-width="1.5"/>
    <line id="Line_73" data-name="Line 73" x2="9.606" transform="translate(622.909 278.343)" fill="none" stroke="#c4d0e0" stroke-linecap="round" stroke-miterlimit="10" stroke-width="1.5"/>
    <line id="Line_74" data-name="Line 74" y1="7.137" transform="translate(733.536 368.595)" fill="none" stroke="#c4d0e0" stroke-linecap="round" stroke-miterlimit="10" stroke-width="1.5"/>
    <line id="Line_75" data-name="Line 75" x2="7.137" transform="translate(729.969 372.164)" fill="none" stroke="#c4d0e0" stroke-linecap="round" stroke-miterlimit="10" stroke-width="1.5"/>
    <line id="Line_76" data-name="Line 76" x1="5.048" y2="5.048" transform="translate(627.163 373.176)" fill="none" stroke="#c4d0e0" stroke-linecap="round" stroke-miterlimit="10" stroke-width="1.5"/>
    <line id="Line_79" data-name="Line 79" x1="2.631" y1="2.631" transform="translate(688.459 361.987)" fill="none" stroke="#c4d0e0" stroke-linecap="round" stroke-miterlimit="10" stroke-width="1.5"/>
    <line id="Line_121" data-name="Line 121" x2="9.556" transform="translate(642.599 365.251)" fill="none" stroke="#c4d0e0" stroke-linecap="round" stroke-miterlimit="10" stroke-width="1.5"/>
    <line id="Line_122" data-name="Line 122" x2="0.889" transform="translate(638.061 365.251)" fill="none" stroke="#c4d0e0" stroke-linecap="round" stroke-miterlimit="10" stroke-width="1.5"/>
    <line id="Line_129" data-name="Line 129" x2="14.89" transform="translate(648.71 272.398)" fill="none" stroke="#c4d0e0" stroke-linecap="round" stroke-miterlimit="10" stroke-width="1.5"/>
    <line id="Line_126" data-name="Line 126" x2="118.263" transform="translate(613 358.365)" fill="none" stroke="#141212" stroke-linecap="round" stroke-linejoin="round" stroke-width="1.7"/>
    <path id="Path_4226" data-name="Path 4226" d="M1936.862,490.392h.43" transform="translate(-1202.653 -132.027)" fill="none" stroke="#141212" stroke-linecap="round" stroke-width="1.7"/>
    <g id="Group_3314" data-name="Group 3314" transform="translate(639.581 287.984)" clip-path="url(#clip-path)">
      <path id="Path_6621" data-name="Path 6621" d="M51.724,6.958H4.419A3.571,3.571,0,0,0,.851,10.529V63.958a3.571,3.571,0,0,0,3.568,3.571h47.3a3.572,3.572,0,0,0,3.571-3.571V10.529a3.572,3.572,0,0,0-3.571-3.571" transform="translate(0.338 2.767)" fill="#00b141"/>
      <rect id="Rectangle_1902" data-name="Rectangle 1902" width="54.443" height="60.571" rx="2.555" transform="translate(1.189 9.724)" fill="none" stroke="#1a1717" stroke-linecap="round" stroke-linejoin="round" stroke-width="1.7"/>
      <path id="Path_6622" data-name="Path 6622" d="M21.117.85H6.247V5.932h2.7V9.385h9.468V5.932h2.7Z" transform="translate(2.484 0.338)" fill="#fff"/>
      <path id="Path_6623" data-name="Path 6623" d="M21.117.85H6.247V5.932h2.7V9.385h9.468V5.932h2.7Z" transform="translate(2.484 0.338)" fill="none" stroke="#1a1717" stroke-linecap="round" stroke-linejoin="round" stroke-width="1.7"/>
      <rect id="Rectangle_1903" data-name="Rectangle 1903" width="10.284" height="8.535" transform="translate(34.692 1.188)" fill="#fff"/>
      <rect id="Rectangle_1904" data-name="Rectangle 1904" width="10.284" height="8.535" transform="translate(34.692 1.188)" fill="none" stroke="#1a1717" stroke-linecap="round" stroke-linejoin="round" stroke-width="1.7"/>
      <line id="Line_863" data-name="Line 863" x2="54.445" transform="translate(1.205 23.816)" fill="none" stroke="#1a1717" stroke-linecap="round" stroke-linejoin="round" stroke-width="1.7"/>
      <line id="Line_864" data-name="Line 864" y1="4.826" transform="translate(16.168 14.612)" fill="none" stroke="#1a1717" stroke-linecap="round" stroke-linejoin="round" stroke-width="1.7"/>
      <line id="Line_865" data-name="Line 865" x1="4.827" transform="translate(37.421 17.025)" fill="none" stroke="#1a1717" stroke-linecap="round" stroke-linejoin="round" stroke-width="1.7"/>
      <line id="Line_866" data-name="Line 866" x1="4.827" transform="translate(13.754 17.025)" fill="none" stroke="#1a1717" stroke-linecap="round" stroke-linejoin="round" stroke-width="1.7"/>
      <path id="Path_6624" data-name="Path 6624" d="M29.481,34.413l-5.832-2.036.639-10.352L15.228,37.679l5.832,2.036-.64,10.352Z" transform="translate(6.055 8.758)" fill="#fff"/>
      <path id="Path_6625" data-name="Path 6625" d="M29.481,34.413l-5.832-2.036.639-10.352L15.228,37.679l5.832,2.036-.64,10.352Z" transform="translate(6.055 8.758)" fill="none" stroke="#1a1717" stroke-linecap="round" stroke-linejoin="round" stroke-width="1.7"/>
    </g>
  </g>
</svg>
