<svg xmlns="http://www.w3.org/2000/svg" xmlns:xlink="http://www.w3.org/1999/xlink" width="174.697" height="162.068" viewBox="0 0 174.697 162.068">
  <defs>
    <clipPath id="clip-path">
      <rect id="Rectangle_1894" data-name="Rectangle 1894" width="84.065" height="89.056" fill="none"/>
    </clipPath>
  </defs>
  <g id="Group_4549" data-name="Group 4549" transform="translate(-920.657 -778.018)">
    <path id="Path_462" data-name="Path 462" d="M17.249,15.878C33,4.952,103.97-12.509,120.416,13.774s34.3,45.5,21.8,68.887S41.351,151.739,17.249,114.385-4.62,31.051,17.249,15.878Z" transform="matrix(0.966, 0.259, -0.259, 0.966, 953.929, 778.018)" fill="#EDF0F5"/>
    <path id="Path_471" data-name="Path 471" d="M1752.316,470.561a2.908,2.908,0,0,1-2.906,2.91h0a2.911,2.911,0,0,1-2.911-2.91h0a2.91,2.91,0,0,1,5.82,0Z" transform="translate(-811.281 396.887)" fill="none" stroke="#c4d0e0" stroke-miterlimit="10" stroke-width="1.5"/>
    <ellipse id="Ellipse_42" data-name="Ellipse 42" cx="3.034" cy="3.034" rx="3.034" ry="3.034" transform="translate(1047.38 799.218)" fill="none" stroke="#c4d0e0" stroke-miterlimit="10" stroke-width="1.5"/>
    <path id="Path_472" data-name="Path 472" d="M1942.933,426.532a1.863,1.863,0,0,1-1.862,1.866h0a1.866,1.866,0,1,1,1.864-1.867Z" transform="translate(-861.92 396.636)" fill="none" stroke="#c4d0e0" stroke-miterlimit="10" stroke-width="1.5"/>
    <line id="Line_72" data-name="Line 72" y1="9.606" transform="translate(962.712 806.54)" fill="none" stroke="#c4d0e0" stroke-linecap="round" stroke-miterlimit="10" stroke-width="1.5"/>
    <line id="Line_73" data-name="Line 73" x2="9.606" transform="translate(957.909 811.343)" fill="none" stroke="#c4d0e0" stroke-linecap="round" stroke-miterlimit="10" stroke-width="1.5"/>
    <line id="Line_74" data-name="Line 74" y1="7.137" transform="translate(1068.536 901.595)" fill="none" stroke="#c4d0e0" stroke-linecap="round" stroke-miterlimit="10" stroke-width="1.5"/>
    <line id="Line_75" data-name="Line 75" x2="7.137" transform="translate(1064.969 905.164)" fill="none" stroke="#c4d0e0" stroke-linecap="round" stroke-miterlimit="10" stroke-width="1.5"/>
    <line id="Line_76" data-name="Line 76" x1="5.048" y2="5.048" transform="translate(962.163 906.176)" fill="none" stroke="#c4d0e0" stroke-linecap="round" stroke-miterlimit="10" stroke-width="1.5"/>
    <line id="Line_77" data-name="Line 77" x1="5.048" y1="5.048" transform="translate(962.163 906.176)" fill="none" stroke="#c4d0e0" stroke-linecap="round" stroke-miterlimit="10" stroke-width="1.5"/>
    <line id="Line_78" data-name="Line 78" x1="2.631" y2="2.631" transform="translate(1023.459 894.987)" fill="none" stroke="#c4d0e0" stroke-linecap="round" stroke-miterlimit="10" stroke-width="1.5"/>
    <line id="Line_79" data-name="Line 79" x1="2.631" y1="2.631" transform="translate(1023.459 894.987)" fill="none" stroke="#c4d0e0" stroke-linecap="round" stroke-miterlimit="10" stroke-width="1.5"/>
    <line id="Line_121" data-name="Line 121" x2="9.556" transform="translate(977.599 898.251)" fill="none" stroke="#c4d0e0" stroke-linecap="round" stroke-miterlimit="10" stroke-width="1.5"/>
    <line id="Line_122" data-name="Line 122" x2="0.889" transform="translate(973.061 898.251)" fill="none" stroke="#c4d0e0" stroke-linecap="round" stroke-miterlimit="10" stroke-width="1.5"/>
    <line id="Line_129" data-name="Line 129" x2="14.89" transform="translate(983.71 805.398)" fill="none" stroke="#c4d0e0" stroke-linecap="round" stroke-miterlimit="10" stroke-width="1.5"/>
    <line id="Line_128" data-name="Line 128" x2="0.626" transform="translate(1002.375 805.398)" fill="none" stroke="#c4d0e0" stroke-linecap="round" stroke-miterlimit="10" stroke-width="1.5"/>
    <line id="Line_126" data-name="Line 126" x2="118.263" transform="translate(948 891.365)" fill="none" stroke="#141212" stroke-linecap="round" stroke-linejoin="round" stroke-width="1.7"/>
    <g id="Group_3310" data-name="Group 3310" transform="translate(963.935 803.662)" clip-path="url(#clip-path)">
      <path id="Path_6597" data-name="Path 6597" d="M76.328,7.784H5.842a3.458,3.458,0,0,0-3.459,3.459v62.3A3.459,3.459,0,0,0,5.842,77H76.328a3.459,3.459,0,0,0,3.459-3.459v-62.3a3.458,3.458,0,0,0-3.459-3.459" transform="translate(0.948 3.095)" fill="#00b141"/>
      <rect id="Rectangle_1887" data-name="Rectangle 1887" width="77.404" height="69.219" rx="2.475" transform="translate(3.331 10.88)" fill="none" stroke="#1a1717" stroke-linecap="round" stroke-linejoin="round" stroke-width="1.7"/>
      <path id="Path_6598" data-name="Path 6598" d="M22.593,44.792l-4.886-1.707.537-8.672L10.653,47.528l4.886,1.707L15,57.907Z" transform="translate(4.236 13.684)" fill="#fff"/>
      <path id="Path_6599" data-name="Path 6599" d="M22.593,44.792l-4.886-1.707.537-8.672L10.653,47.528l4.886,1.707L15,57.907Z" transform="translate(4.236 13.684)" fill="none" stroke="#1a1717" stroke-linecap="round" stroke-linejoin="round" stroke-width="1.7"/>
      <rect id="Rectangle_1888" data-name="Rectangle 1888" width="81.689" height="10.337" transform="translate(1.188 10.879)" fill="#00b141"/>
      <rect id="Rectangle_1889" data-name="Rectangle 1889" width="81.689" height="10.337" transform="translate(1.188 10.879)" fill="none" stroke="#1a1717" stroke-linecap="round" stroke-linejoin="round" stroke-width="1.7"/>
      <rect id="Rectangle_1890" data-name="Rectangle 1890" width="12.86" height="7.662" transform="translate(16.042 80.1)" fill="#fff"/>
      <rect id="Rectangle_1891" data-name="Rectangle 1891" width="12.86" height="7.662" transform="translate(16.042 80.1)" fill="none" stroke="#1a1717" stroke-linecap="round" stroke-linejoin="round" stroke-width="1.7"/>
      <path id="Path_6600" data-name="Path 6600" d="M25.283,65.379H67.222a3.458,3.458,0,0,0,3.458-3.461v-24.9H28.742a3.459,3.459,0,0,0-3.459,3.459Z" transform="translate(10.053 14.721)" fill="#00b141"/>
      <path id="Path_6601" data-name="Path 6601" d="M25.283,65.379H67.222a3.458,3.458,0,0,0,3.458-3.461v-24.9H28.742a3.459,3.459,0,0,0-3.459,3.459Z" transform="translate(10.053 14.721)" fill="none" stroke="#1a1717" stroke-linecap="round" stroke-linejoin="round" stroke-width="1.7"/>
      <path id="Path_6602" data-name="Path 6602" d="M55.085,59.521a7.769,7.769,0,1,0-7.769,7.769,7.769,7.769,0,0,0,7.769-7.769" transform="translate(15.725 20.578)" fill="#fff"/>
      <path id="Path_6603" data-name="Path 6603" d="M55.085,59.521a7.769,7.769,0,1,0-7.769,7.769A7.769,7.769,0,0,0,55.085,59.521Z" transform="translate(15.725 20.578)" fill="none" stroke="#1a1717" stroke-linecap="round" stroke-linejoin="round" stroke-width="1.7"/>
      <rect id="Rectangle_1892" data-name="Rectangle 1892" width="34.281" height="15.906" transform="translate(39.877 29.009)" fill="#fff"/>
      <rect id="Rectangle_1893" data-name="Rectangle 1893" width="34.281" height="15.906" transform="translate(39.877 29.009)" fill="none" stroke="#1a1717" stroke-linecap="round" stroke-linejoin="round" stroke-width="1.7"/>
      <line id="Line_848" data-name="Line 848" x2="62.833" transform="translate(10.616 16.049)" fill="none" stroke="#fff" stroke-linecap="round" stroke-linejoin="round" stroke-width="1.7"/>
      <line id="Line_849" data-name="Line 849" x2="10.408" transform="translate(63.041 58.623)" fill="none" stroke="#fff" stroke-linecap="round" stroke-linejoin="round" stroke-width="1.7"/>
      <line id="Line_850" data-name="Line 850" x2="10.408" transform="translate(63.041 64.285)" fill="none" stroke="#fff" stroke-linecap="round" stroke-linejoin="round" stroke-width="1.7"/>
      <line id="Line_851" data-name="Line 851" x2="0.725" transform="translate(55.385 58.623)" fill="none" stroke="#fff" stroke-linecap="round" stroke-linejoin="round" stroke-width="1.7"/>
      <line id="Line_852" data-name="Line 852" x2="0.724" transform="translate(48.753 58.623)" fill="none" stroke="#fff" stroke-linecap="round" stroke-linejoin="round" stroke-width="1.7"/>
      <line id="Line_853" data-name="Line 853" x2="0.724" transform="translate(42.119 58.623)" fill="none" stroke="#fff" stroke-linecap="round" stroke-linejoin="round" stroke-width="1.7"/>
      <line id="Line_854" data-name="Line 854" x2="0.725" transform="translate(55.385 64.285)" fill="none" stroke="#fff" stroke-linecap="round" stroke-linejoin="round" stroke-width="1.7"/>
      <line id="Line_855" data-name="Line 855" x2="0.724" transform="translate(48.753 64.285)" fill="none" stroke="#fff" stroke-linecap="round" stroke-linejoin="round" stroke-width="1.7"/>
      <line id="Line_856" data-name="Line 856" x2="0.724" transform="translate(42.119 64.285)" fill="none" stroke="#fff" stroke-linecap="round" stroke-linejoin="round" stroke-width="1.7"/>
      <path id="Path_6604" data-name="Path 6604" d="M15.027,27.416a3.405,3.405,0,1,0-3.406,3.406,3.406,3.406,0,0,0,3.406-3.406" transform="translate(3.267 9.547)" fill="#fff"/>
      <path id="Path_6605" data-name="Path 6605" d="M15.027,27.416a3.405,3.405,0,1,0-3.406,3.406A3.406,3.406,0,0,0,15.027,27.416Z" transform="translate(3.267 9.547)" fill="none" stroke="#1a1717" stroke-linecap="round" stroke-linejoin="round" stroke-width="1.7"/>
      <path id="Path_6606" data-name="Path 6606" d="M23.57,27.416a3.405,3.405,0,1,0-3.406,3.406,3.406,3.406,0,0,0,3.406-3.406" transform="translate(6.664 9.547)" fill="#fff"/>
      <path id="Path_6607" data-name="Path 6607" d="M23.57,27.416a3.405,3.405,0,1,0-3.406,3.406A3.406,3.406,0,0,0,23.57,27.416Z" transform="translate(6.664 9.547)" fill="none" stroke="#1a1717" stroke-linecap="round" stroke-linejoin="round" stroke-width="1.7"/>
      <path id="Path_6608" data-name="Path 6608" d="M12.594,10.542V.849H2.383" transform="translate(0.948 0.338)" fill="none" stroke="#1a1717" stroke-linecap="round" stroke-linejoin="round" stroke-width="1.7"/>
      <line id="Line_857" data-name="Line 857" y2="7.223" transform="translate(44.617 33.671)" fill="none" stroke="#1a1717" stroke-linecap="round" stroke-linejoin="round" stroke-width="1"/>
      <path id="Path_6609" data-name="Path 6609" d="M34.808,24.091h4.834V27.7" transform="translate(13.841 9.58)" fill="none" stroke="#1a1717" stroke-linecap="round" stroke-linejoin="round" stroke-width="1"/>
      <path id="Path_6610" data-name="Path 6610" d="M39.643,30.286H34.809v-3.61h4.834" transform="translate(13.841 10.607)" fill="none" stroke="#1a1717" stroke-linecap="round" stroke-linejoin="round" stroke-width="1"/>
      <path id="Path_6611" data-name="Path 6611" d="M40.793,30.286h4.836v-3.61H40.793" transform="translate(16.221 10.607)" fill="none" stroke="#1a1717" stroke-linecap="round" stroke-linejoin="round" stroke-width="1"/>
      <path id="Path_6612" data-name="Path 6612" d="M40.793,27.7h4.836v-3.61H40.793" transform="translate(16.221 9.58)" fill="none" stroke="#1a1717" stroke-linecap="round" stroke-linejoin="round" stroke-width="1"/>
      <path id="Path_6613" data-name="Path 6613" d="M51.492,30.286v-3.61H46.656" transform="translate(18.552 10.607)" fill="none" stroke="#1a1717" stroke-linecap="round" stroke-linejoin="round" stroke-width="1"/>
      <line id="Line_858" data-name="Line 858" y1="3.61" transform="translate(70.044 33.671)" fill="none" stroke="#1a1717" stroke-linecap="round" stroke-linejoin="round" stroke-width="1"/>
      <line id="Line_859" data-name="Line 859" y1="3.61" transform="translate(65.208 33.671)" fill="none" stroke="#1a1717" stroke-linecap="round" stroke-linejoin="round" stroke-width="1"/>
    </g>
  </g>
</svg>
