<svg xmlns="http://www.w3.org/2000/svg" width="178.386" height="165.49" viewBox="0 0 178.386 165.49">
  <g id="Group_4552" data-name="Group 4552" transform="translate(-246.968 -241.595)">
    <path id="Path_462" data-name="Path 462" d="M17.613,16.214C33.7,5.057,106.166-12.773,122.959,14.065s35.024,46.465,22.264,70.342-103,70.536-127.61,32.394S-4.717,31.706,17.613,16.214Z" transform="matrix(0.966, 0.259, -0.259, 0.966, 280.942, 241.595)" fill="#4a4a4a"/>
    <path id="Path_471" data-name="Path 471" d="M1752.439,470.622a2.97,2.97,0,0,1-2.968,2.972h0a2.972,2.972,0,0,1-2.973-2.972h0a2.971,2.971,0,0,1,5.943,0Z" transform="translate(-1484.663 -137.709)" fill="none" stroke="#c4d0e0" stroke-miterlimit="10" stroke-width="1.5"/>
    <path id="Path_472" data-name="Path 472" d="M1943.012,426.571a1.9,1.9,0,0,1-1.9,1.905h0a1.905,1.905,0,1,1,1.9-1.907Z" transform="translate(-1532.302 -138.872)" fill="none" stroke="#c4d0e0" stroke-miterlimit="10" stroke-width="1.5"/>
    <line id="Line_72" data-name="Line 72" y1="9.83" transform="translate(289.612 270.419)" fill="none" stroke="#c4d0e0" stroke-linecap="round" stroke-miterlimit="10" stroke-width="1.5"/>
    <line id="Line_73" data-name="Line 73" x2="9.809" transform="translate(285.006 275.624)" fill="none" stroke="#c4d0e0" stroke-linecap="round" stroke-miterlimit="10" stroke-width="1.5"/>
    <line id="Line_74" data-name="Line 74" y1="7.287" transform="translate(397.969 367.782)" fill="none" stroke="#c4d0e0" stroke-linecap="round" stroke-miterlimit="10" stroke-width="1.5"/>
    <line id="Line_75" data-name="Line 75" x2="7.287" transform="translate(394.326 371.426)" fill="none" stroke="#c4d0e0" stroke-linecap="round" stroke-miterlimit="10" stroke-width="1.5"/>
    <line id="Line_76" data-name="Line 76" x1="5.154" y2="5.154" transform="translate(289.35 372.46)" fill="none" stroke="#c4d0e0" stroke-linecap="round" stroke-miterlimit="10" stroke-width="1.5"/>
    <line id="Line_77" data-name="Line 77" x1="5.154" y1="5.154" transform="translate(289.35 372.46)" fill="none" stroke="#c4d0e0" stroke-linecap="round" stroke-miterlimit="10" stroke-width="1.5"/>
    <line id="Line_78" data-name="Line 78" x1="2.69" y2="2.69" transform="translate(351.849 360.977)" fill="none" stroke="#c4d0e0" stroke-linecap="round" stroke-miterlimit="10" stroke-width="1.5"/>
    <line id="Line_79" data-name="Line 79" x1="2.689" y1="2.689" transform="translate(351.872 360.991)" fill="none" stroke="#c4d0e0" stroke-linecap="round" stroke-miterlimit="10" stroke-width="1.5"/>
    <line id="Line_121" data-name="Line 121" x2="9.758" transform="translate(305.112 364.367)" fill="none" stroke="#c4d0e0" stroke-linecap="round" stroke-miterlimit="10" stroke-width="1.5"/>
    <line id="Line_122" data-name="Line 122" x2="0.908" transform="translate(300.478 364.367)" fill="none" stroke="#c4d0e0" stroke-linecap="round" stroke-miterlimit="10" stroke-width="1.5"/>
    <line id="Line_129" data-name="Line 129" x2="15.318" transform="translate(310.734 268.566)" fill="none" stroke="#c4d0e0" stroke-linecap="round" stroke-miterlimit="10" stroke-width="1.5"/>
    <line id="Line_128" data-name="Line 128" x2="0.643" transform="translate(330.213 269.062)" fill="none" stroke="#c4d0e0" stroke-linecap="round" stroke-miterlimit="10" stroke-width="1.5"/>
    <line id="Line_126" data-name="Line 126" x2="120.798" transform="translate(274.84 357.321)" fill="none" stroke="#141212" stroke-linecap="round" stroke-linejoin="round" stroke-width="1.7"/>
    <path id="Path_4226" data-name="Path 4226" d="M1936.862,490.392h.439" transform="translate(-1538.214 -133.071)" fill="none" stroke="#141212" stroke-linecap="round" stroke-width="1.7"/>
    <path id="Path_6614" data-name="Path 6614" d="M67.443,6.252H6.143A3.536,3.536,0,0,0,2.606,9.788V68.5a3.538,3.538,0,0,0,3.537,3.537h61.3A3.538,3.538,0,0,0,70.98,68.5V9.788a3.536,3.536,0,0,0-3.537-3.536" transform="translate(294.898 285.212)" fill="#00b141"/>
    <path id="Rectangle_1895" data-name="Rectangle 1895" d="M2.45,0H65.162a2.451,2.451,0,0,1,2.451,2.451V62.6a2.451,2.451,0,0,1-2.451,2.451H2.451A2.451,2.451,0,0,1,0,62.6V2.45A2.45,2.45,0,0,1,2.45,0Z" transform="translate(298.265 292.198)" fill="none" stroke="#1a1717" stroke-linecap="round" stroke-linejoin="round" stroke-width="1.7"/>
    <line id="Line_860" data-name="Line 860" x1="4.73" transform="translate(348.228 299.35)" fill="none" stroke="#1a1717" stroke-linecap="round" stroke-linejoin="round" stroke-width="1.642"/>
    <line id="Line_861" data-name="Line 861" y1="4.734" transform="translate(312.993 296.848)" fill="none" stroke="#1a1717" stroke-linecap="round" stroke-linejoin="round" stroke-width="1.642"/>
    <line id="Line_862" data-name="Line 862" x1="4.728" transform="translate(310.77 299.35)" fill="none" stroke="#1a1717" stroke-linecap="round" stroke-linejoin="round" stroke-width="1.642"/>
    <path id="Path_6615" data-name="Path 6615" d="M35.076,36.983l-5.757-2.01.633-10.22L21.008,40.206l5.755,2.01-.631,10.218Z" transform="translate(303.001 293.225)" fill="#fff"/>
    <path id="Path_6616" data-name="Path 6616" d="M35,36.919l-5.727-2L29.9,24.753l-8.9,15.373,5.725,2-.628,10.165Z" transform="translate(303.298 293.652)" fill="none" stroke="#1a1717" stroke-linecap="round" stroke-linejoin="round" stroke-width="1.7"/>
    <rect id="Rectangle_1896" data-name="Rectangle 1896" width="72.647" height="6.109" transform="translate(295.718 351.123)" fill="#fff"/>
    <rect id="Rectangle_1897" data-name="Rectangle 1897" width="72.623" height="6.107" transform="translate(295.759 351.141)" fill="none" stroke="#1a1717" stroke-linecap="round" stroke-linejoin="round" stroke-width="1.7"/>
    <rect id="Rectangle_1898" data-name="Rectangle 1898" width="72.647" height="6.109" transform="translate(295.718 304.909)" fill="#fff"/>
    <rect id="Rectangle_1899" data-name="Rectangle 1899" width="72.623" height="6.107" transform="translate(295.759 304.941)" fill="none" stroke="#1a1717" stroke-linecap="round" stroke-linejoin="round" stroke-width="1.7"/>
    <rect id="Rectangle_1900" data-name="Rectangle 1900" width="15.151" height="7.767" transform="translate(323.821 283.611)" fill="none" stroke="#1a1717" stroke-linecap="round" stroke-linejoin="round" stroke-width="1.7"/>
    <path id="Path_6617" data-name="Path 6617" d="M42.855,8.332H37.34V4.145a2.757,2.757,0,0,1,5.515,0Z" transform="translate(310.472 283.829)" fill="#00b141"/>
    <path id="Path_6618" data-name="Path 6618" d="M42.86,8.338H37.34V4.147a2.76,2.76,0,0,1,5.52,0Z" transform="translate(310.399 283.715)" fill="none" stroke="#1a1717" stroke-linecap="round" stroke-linejoin="round" stroke-width="1.7"/>
    <path id="Path_6619" data-name="Path 6619" d="M16.641,8.375h-5.55V4.162a2.775,2.775,0,0,1,5.55,0Z" transform="translate(298.767 283.111)" fill="#00b141"/>
    <path id="Path_6620" data-name="Path 6620" d="M16.612,8.338H11.091V4.147a2.761,2.761,0,0,1,5.521,0Z" transform="translate(299.14 283.715)" fill="none" stroke="#1a1717" stroke-linecap="round" stroke-linejoin="round" stroke-width="1.7"/>
  </g>
</svg>
